<?xml version="1.0" encoding="UTF-8" standalone="no"?>
<!DOCTYPE svg PUBLIC "-//W3C//DTD SVG 1.1//EN"
 "http://www.w3.org/Graphics/SVG/1.1/DTD/svg11.dtd">
<!-- Generated by graphviz version 2.47.0 (20210316.0004)
 -->
<!-- Title: dependencies Pages: 1 -->
<svg width="1828pt" height="284pt"
 viewBox="0.00 0.00 1828.00 284.00" xmlns="http://www.w3.org/2000/svg" xmlns:xlink="http://www.w3.org/1999/xlink">
<g id="graph0" class="graph" transform="scale(1 1) rotate(0) translate(4 280)">
<title>dependencies</title>
<polygon fill="white" stroke="transparent" points="-4,4 -4,-280 1824,-280 1824,4 -4,4"/>
<text text-anchor="start" x="889.01" y="-42.4" font-family="sans-serif" font-weight="bold" font-size="14.00">Legend</text>
<polygon fill="#ffffb3" stroke="transparent" points="676,-10 676,-30 696,-30 696,-10 676,-10"/>
<text text-anchor="start" x="699.63" y="-15.4" font-family="sans-serif" font-size="14.00"> &#160;Declarations</text>
<polygon fill="#8dd3c7" stroke="transparent" points="789,-10 789,-30 809,-30 809,-10 789,-10"/>
<text text-anchor="start" x="812.73" y="-15.4" font-family="sans-serif" font-size="14.00"> &#160;Module</text>
<polygon fill="#80b1d3" stroke="transparent" points="875,-10 875,-30 895,-30 895,-10 875,-10"/>
<text text-anchor="start" x="898.78" y="-15.4" font-family="sans-serif" font-size="14.00"> &#160;Bootstrap</text>
<polygon fill="#fdb462" stroke="transparent" points="972,-10 972,-30 992,-30 992,-10 972,-10"/>
<text text-anchor="start" x="995.67" y="-15.4" font-family="sans-serif" font-size="14.00"> &#160;Providers</text>
<polygon fill="#fb8072" stroke="transparent" points="1068,-10 1068,-30 1088,-30 1088,-10 1068,-10"/>
<text text-anchor="start" x="1091.73" y="-15.4" font-family="sans-serif" font-size="14.00"> &#160;Exports</text>
<g id="clust1" class="cluster">
<title>cluster_AppModule</title>
<polygon fill="none" stroke="black" stroke-dasharray="1,5" points="8,-70 8,-268 1812,-268 1812,-70 8,-70"/>
</g>
<g id="clust14" class="cluster">
<title>cluster_AppModule_imports</title>
<polygon fill="none" stroke="black" points="1660,-78 1660,-130 1804,-130 1804,-78 1660,-78"/>
</g>
<g id="clust16" class="cluster">
<title>cluster_AppModule_bootstrap</title>
<polygon fill="none" stroke="black" points="901,-208 901,-260 1025,-260 1025,-208 901,-208"/>
</g>
<g id="clust2" class="cluster">
<title>cluster_AppModule_declarations</title>
<polygon fill="none" stroke="black" points="16,-78 16,-130 1652,-130 1652,-78 16,-78"/>
</g>
<!-- AppComponent -->
<g id="node1" class="node">
<title>AppComponent</title>
<polygon fill="#ffffb3" stroke="black" points="1643.94,-122 1538.06,-122 1538.06,-86 1643.94,-86 1643.94,-122"/>
<text text-anchor="middle" x="1591" y="-99.8" font-family="Times,serif" font-size="14.00">AppComponent</text>
</g>
<!-- AppModule -->
<g id="node12" class="node">
<title>AppModule</title>
<polygon fill="#8dd3c7" stroke="black" points="1004.66,-187 1001.66,-191 980.66,-191 977.66,-187 921.34,-187 921.34,-151 1004.66,-151 1004.66,-187"/>
<text text-anchor="middle" x="963" y="-164.8" font-family="Times,serif" font-size="14.00">AppModule</text>
</g>
<!-- AppComponent&#45;&gt;AppModule -->
<g id="edge1" class="edge">
<title>AppComponent&#45;&gt;AppModule</title>
<path fill="none" stroke="black" d="M1591,-122.28C1591,-143.32 1591,-175 1591,-175 1591,-175 1014.69,-175 1014.69,-175"/>
<polygon fill="black" stroke="black" points="1014.69,-171.5 1004.69,-175 1014.69,-178.5 1014.69,-171.5"/>
</g>
<!-- CadastrarComponent -->
<g id="node2" class="node">
<title>CadastrarComponent</title>
<polygon fill="#ffffb3" stroke="black" points="1520.47,-122 1385.53,-122 1385.53,-86 1520.47,-86 1520.47,-122"/>
<text text-anchor="middle" x="1453" y="-99.8" font-family="Times,serif" font-size="14.00">CadastrarComponent</text>
</g>
<!-- CadastrarComponent&#45;&gt;AppModule -->
<g id="edge2" class="edge">
<title>CadastrarComponent&#45;&gt;AppModule</title>
<path fill="none" stroke="black" d="M1453,-122.11C1453,-141.34 1453,-169 1453,-169 1453,-169 1014.78,-169 1014.78,-169"/>
<polygon fill="black" stroke="black" points="1014.78,-165.5 1004.78,-169 1014.78,-172.5 1014.78,-165.5"/>
</g>
<!-- EntrarComponent -->
<g id="node3" class="node">
<title>EntrarComponent</title>
<polygon fill="#ffffb3" stroke="black" points="1367.31,-122 1250.69,-122 1250.69,-86 1367.31,-86 1367.31,-122"/>
<text text-anchor="middle" x="1309" y="-99.8" font-family="Times,serif" font-size="14.00">EntrarComponent</text>
</g>
<!-- EntrarComponent&#45;&gt;AppModule -->
<g id="edge3" class="edge">
<title>EntrarComponent&#45;&gt;AppModule</title>
<path fill="none" stroke="black" d="M1309,-122.02C1309,-139.37 1309,-163 1309,-163 1309,-163 1014.74,-163 1014.74,-163"/>
<polygon fill="black" stroke="black" points="1014.74,-159.5 1004.74,-163 1014.74,-166.5 1014.74,-159.5"/>
</g>
<!-- InicioComponent -->
<g id="node4" class="node">
<title>InicioComponent</title>
<polygon fill="#ffffb3" stroke="black" points="1232.99,-122 1119.01,-122 1119.01,-86 1232.99,-86 1232.99,-122"/>
<text text-anchor="middle" x="1176" y="-99.8" font-family="Times,serif" font-size="14.00">InicioComponent</text>
</g>
<!-- InicioComponent&#45;&gt;AppModule -->
<g id="edge4" class="edge">
<title>InicioComponent&#45;&gt;AppModule</title>
<path fill="none" stroke="black" d="M1176,-122.24C1176,-137.57 1176,-157 1176,-157 1176,-157 1014.83,-157 1014.83,-157"/>
<polygon fill="black" stroke="black" points="1014.83,-153.5 1004.83,-157 1014.83,-160.5 1014.83,-153.5"/>
</g>
<!-- MenuComponent -->
<g id="node5" class="node">
<title>MenuComponent</title>
<polygon fill="#ffffb3" stroke="black" points="1100.99,-122 987.01,-122 987.01,-86 1100.99,-86 1100.99,-122"/>
<text text-anchor="middle" x="1044" y="-99.8" font-family="Times,serif" font-size="14.00">MenuComponent</text>
</g>
<!-- MenuComponent&#45;&gt;AppModule -->
<g id="edge5" class="edge">
<title>MenuComponent&#45;&gt;AppModule</title>
<path fill="none" stroke="black" d="M995.92,-122.11C995.92,-122.11 995.92,-140.99 995.92,-140.99"/>
<polygon fill="black" stroke="black" points="992.42,-140.99 995.92,-150.99 999.42,-140.99 992.42,-140.99"/>
</g>
<!-- PostagemDeleteComponent -->
<g id="node6" class="node">
<title>PostagemDeleteComponent</title>
<polygon fill="#ffffb3" stroke="black" points="969.3,-122 796.7,-122 796.7,-86 969.3,-86 969.3,-122"/>
<text text-anchor="middle" x="883" y="-99.8" font-family="Times,serif" font-size="14.00">PostagemDeleteComponent</text>
</g>
<!-- PostagemDeleteComponent&#45;&gt;AppModule -->
<g id="edge6" class="edge">
<title>PostagemDeleteComponent&#45;&gt;AppModule</title>
<path fill="none" stroke="black" d="M945.16,-122.11C945.16,-122.11 945.16,-140.99 945.16,-140.99"/>
<polygon fill="black" stroke="black" points="941.66,-140.99 945.16,-150.99 948.66,-140.99 941.66,-140.99"/>
</g>
<!-- PostagemEditComponent -->
<g id="node7" class="node">
<title>PostagemEditComponent</title>
<polygon fill="#ffffb3" stroke="black" points="778.6,-122 619.4,-122 619.4,-86 778.6,-86 778.6,-122"/>
<text text-anchor="middle" x="699" y="-99.8" font-family="Times,serif" font-size="14.00">PostagemEditComponent</text>
</g>
<!-- PostagemEditComponent&#45;&gt;AppModule -->
<g id="edge7" class="edge">
<title>PostagemEditComponent&#45;&gt;AppModule</title>
<path fill="none" stroke="black" d="M699,-122.24C699,-137.57 699,-157 699,-157 699,-157 911.17,-157 911.17,-157"/>
<polygon fill="black" stroke="black" points="911.17,-160.5 921.17,-157 911.17,-153.5 911.17,-160.5"/>
</g>
<!-- RodapeComponent -->
<g id="node8" class="node">
<title>RodapeComponent</title>
<polygon fill="#ffffb3" stroke="black" points="601.1,-122 476.9,-122 476.9,-86 601.1,-86 601.1,-122"/>
<text text-anchor="middle" x="539" y="-99.8" font-family="Times,serif" font-size="14.00">RodapeComponent</text>
</g>
<!-- RodapeComponent&#45;&gt;AppModule -->
<g id="edge8" class="edge">
<title>RodapeComponent&#45;&gt;AppModule</title>
<path fill="none" stroke="black" d="M539,-122.02C539,-139.37 539,-163 539,-163 539,-163 911.18,-163 911.18,-163"/>
<polygon fill="black" stroke="black" points="911.18,-166.5 921.18,-163 911.18,-159.5 911.18,-166.5"/>
</g>
<!-- TemaComponent -->
<g id="node9" class="node">
<title>TemaComponent</title>
<polygon fill="#ffffb3" stroke="black" points="458.7,-122 345.3,-122 345.3,-86 458.7,-86 458.7,-122"/>
<text text-anchor="middle" x="402" y="-99.8" font-family="Times,serif" font-size="14.00">TemaComponent</text>
</g>
<!-- TemaComponent&#45;&gt;AppModule -->
<g id="edge9" class="edge">
<title>TemaComponent&#45;&gt;AppModule</title>
<path fill="none" stroke="black" d="M402,-122.11C402,-141.34 402,-169 402,-169 402,-169 911.29,-169 911.29,-169"/>
<polygon fill="black" stroke="black" points="911.29,-172.5 921.29,-169 911.29,-165.5 911.29,-172.5"/>
</g>
<!-- TemaDeleteComponent -->
<g id="node10" class="node">
<title>TemaDeleteComponent</title>
<polygon fill="#ffffb3" stroke="black" points="327.74,-122 178.26,-122 178.26,-86 327.74,-86 327.74,-122"/>
<text text-anchor="middle" x="253" y="-99.8" font-family="Times,serif" font-size="14.00">TemaDeleteComponent</text>
</g>
<!-- TemaDeleteComponent&#45;&gt;AppModule -->
<g id="edge10" class="edge">
<title>TemaDeleteComponent&#45;&gt;AppModule</title>
<path fill="none" stroke="black" d="M253,-122.28C253,-143.32 253,-175 253,-175 253,-175 911.24,-175 911.24,-175"/>
<polygon fill="black" stroke="black" points="911.24,-178.5 921.24,-175 911.24,-171.5 911.24,-178.5"/>
</g>
<!-- TemaEditComponent -->
<g id="node11" class="node">
<title>TemaEditComponent</title>
<polygon fill="#ffffb3" stroke="black" points="160.04,-122 23.96,-122 23.96,-86 160.04,-86 160.04,-122"/>
<text text-anchor="middle" x="92" y="-99.8" font-family="Times,serif" font-size="14.00">TemaEditComponent</text>
</g>
<!-- TemaEditComponent&#45;&gt;AppModule -->
<g id="edge11" class="edge">
<title>TemaEditComponent&#45;&gt;AppModule</title>
<path fill="none" stroke="black" d="M92,-122.25C92,-145.02 92,-181 92,-181 92,-181 911.28,-181 911.28,-181"/>
<polygon fill="black" stroke="black" points="911.28,-184.5 921.28,-181 911.28,-177.5 911.28,-184.5"/>
</g>
<!-- AppComponent  -->
<g id="node14" class="node">
<title>AppComponent </title>
<polygon fill="#80b1d3" stroke="black" points="1017.44,-252 908.56,-252 908.56,-216 1017.44,-216 1017.44,-252"/>
<text text-anchor="middle" x="963" y="-229.8" font-family="Times,serif" font-size="14.00">AppComponent </text>
</g>
<!-- AppModule&#45;&gt;AppComponent  -->
<g id="edge13" class="edge">
<title>AppModule&#45;&gt;AppComponent </title>
<path fill="none" stroke="black" stroke-dasharray="1,5" d="M963,-187.11C963,-187.11 963,-205.99 963,-205.99"/>
<polygon fill="black" stroke="black" points="959.5,-205.99 963,-215.99 966.5,-205.99 959.5,-205.99"/>
</g>
<!-- AppRoutingModule -->
<g id="node13" class="node">
<title>AppRoutingModule</title>
<polygon fill="#8dd3c7" stroke="black" points="1796.27,-122 1793.27,-126 1772.27,-126 1769.27,-122 1667.73,-122 1667.73,-86 1796.27,-86 1796.27,-122"/>
<text text-anchor="middle" x="1732" y="-99.8" font-family="Times,serif" font-size="14.00">AppRoutingModule</text>
</g>
<!-- AppRoutingModule&#45;&gt;AppModule -->
<g id="edge12" class="edge">
<title>AppRoutingModule&#45;&gt;AppModule</title>
<path fill="none" stroke="black" d="M1732,-122.25C1732,-145.02 1732,-181 1732,-181 1732,-181 1014.89,-181 1014.89,-181"/>
<polygon fill="black" stroke="black" points="1014.89,-177.5 1004.89,-181 1014.89,-184.5 1014.89,-177.5"/>
</g>
</g>
</svg>
